<svg width="512" height="512" viewBox="0 0 512 512" fill="none" xmlns="http://www.w3.org/2000/svg">
  <path d="M256 0C114.6 0 0 114.6 0 256C0 397.4 114.6 512 256 512C397.4 512 512 397.4 512 256C512 114.6 397.4 0 256 0Z" fill="#8B0000"/>
  <path d="M256 20C125.6 20 20 125.6 20 256C20 386.4 125.6 492 256 492C386.4 492 492 386.4 492 256C492 125.6 386.4 20 256 20Z" fill="#A52A2A"/>
  <path d="M256 40C137.6 40 40 137.6 40 256C40 374.4 137.6 472 256 472C374.4 472 472 374.4 472 256C472 137.6 374.4 40 256 40Z" fill="#B22222"/>
  <path d="M256 60C148.6 60 60 148.6 60 256C60 363.4 148.6 452 256 452C363.4 452 452 363.4 452 256C452 148.6 363.4 60 256 60Z" fill="#C41E3A"/>
  <path d="M256 80C160.6 80 80 160.6 80 256C80 351.4 160.6 432 256 432C351.4 432 432 351.4 432 256C432 160.6 351.4 80 256 80Z" fill="#DC143C"/>
  <path d="M256 100C171.6 100 100 171.6 100 256C100 340.4 171.6 412 256 412C340.4 412 412 340.4 412 256C412 171.6 340.4 100 256 100Z" fill="#E34234"/>
  <path d="M256 120C183.6 120 120 183.6 120 256C120 328.4 183.6 392 256 392C328.4 392 392 328.4 392 256C392 183.6 328.4 120 256 120Z" fill="#FF2400"/>
  <path d="M256 140C194.6 140 140 194.6 140 256C140 317.4 194.6 372 256 372C317.4 372 372 317.4 372 256C372 194.6 317.4 140 256 140Z" fill="#FF2D00"/>
  <path d="M256 160C206.6 160 160 206.6 160 256C160 305.4 206.6 352 256 352C305.4 352 352 305.4 352 256C352 206.6 305.4 160 256 160Z" fill="#FF3800"/>
  <text x="256" y="270" font-family="Arial, sans-serif" font-size="60" font-weight="bold" fill="white" text-anchor="middle">CG</text>
</svg>
